<svg xmlns="http://www.w3.org/2000/svg" viewBox="0 0 900 940" role="img" aria-labelledby="title">
  <title id="title">YA LABS vertical</title>
  <g transform="translate(70 45) scale(1.45)">
    <g fill="#F4F4F1">
      <path d="M15 22h35l85 129 88-129h35L150 181v108h-30V181L15 22Z"/>
      <path d="m222 289 115-209 16 30-97 179h-34Z"/>
      <path d="m354 50 17-29 136 268h-34L354 50Z"/>
    </g>
    <path fill="#D99F2F" d="M366 177c3 25 13 36 38 41-25 5-35 16-38 41-4-25-14-36-39-41 25-5 35-16 39-41Z"/>
  </g>
  <text x="450" y="790" fill="#F4F4F1" text-anchor="middle" font-family="Aptos, Segoe UI, Arial, sans-serif" font-size="190" font-weight="300" letter-spacing="72">LABS</text>
</svg>
